<?xml version="1.0" encoding="utf-8"?>
<!-- Generator: Adobe Illustrator 16.0.4, SVG Export Plug-In . SVG Version: 6.00 Build 0)  -->
<!DOCTYPE svg PUBLIC "-//W3C//DTD SVG 1.1//EN" "http://www.w3.org/Graphics/SVG/1.1/DTD/svg11.dtd">
<svg version="1.1" id="Calque_1" xmlns="http://www.w3.org/2000/svg" xmlns:xlink="http://www.w3.org/1999/xlink" x="0px" y="0px"
	 width="492.392px" height="155.435px" viewBox="0 0 492.392 155.435" enable-background="new 0 0 492.392 155.435"
	 xml:space="preserve">
<g>
	<path fill="#FFFFFF" d="M230.643,99.773l-9.26-33.167h11.475l4.076,15.199l3.372-15.199h13.488l3.824,15.199l3.926-15.199h11.373
		l-8.655,33.167h-12.984l-3.875-15.653l-3.523,15.653H230.643z"/>
	<path fill="#FFFFFF" d="M295.815,99.773l-2.062-5.939h-12.029l-1.711,5.939h-12.128l9.058-33.167h21.792l9.311,33.167H295.815z
		 M283.689,86.637h8.655l-4.629-13.085L283.689,86.637z"/>
	<path fill="#FFFFFF" d="M322.389,99.773H310.06V66.557h19.023c1.879,0,3.731,0.193,5.562,0.579c1.829,0.386,3.464,1.04,4.905,1.962
		c1.443,0.923,2.61,2.139,3.499,3.649c0.888,1.51,1.317,3.372,1.283,5.586c-0.035,1.812-0.21,3.313-0.528,4.504
		s-0.723,2.181-1.207,2.969c-0.487,0.789-1.024,1.418-1.612,1.888c-0.586,0.47-1.133,0.873-1.635,1.208l-1.409,0.453
		c0.065,0.235,0.101,0.512,0.101,0.83c0,0.319,0.285,0.612,0.857,0.881c0.567,0.269,1.558,0.495,2.967,0.68s3.524,0.276,6.342,0.276
		v7.9H337.79c-1.847-0.4-3.482-0.979-4.906-1.735c-1.427-0.754-2.745-1.626-3.952-2.616c-1.206-0.989-2.339-2.056-3.398-3.196
		c-1.056-1.14-2.104-2.265-3.145-3.371V99.773z M322.49,75.313v6.593h4.58c3.053,0,5.166-0.26,6.342-0.78
		c1.172-0.52,1.762-1.451,1.762-2.793c0-0.436-0.12-0.838-0.354-1.208c-0.236-0.368-0.662-0.687-1.283-0.957
		c-0.62-0.268-1.46-0.478-2.518-0.629c-1.056-0.151-2.406-0.227-4.052-0.227H322.49z"/>
	<path fill="#FFFFFF" d="M337.136,100.075v-8.003h16.758c0.67-0.201,1.158-0.394,1.46-0.579c0.302-0.184,0.31-0.687,0.025-1.51
		c-0.286-0.821-0.932-2.155-1.937-4.001c-1.009-1.845-2.501-4.529-4.481-8.052c-0.737-1.51-1.123-2.961-1.156-4.354
		c-0.034-1.392,0.268-2.608,0.904-3.649c0.638-1.039,1.611-1.869,2.92-2.491c1.309-0.62,2.971-0.931,4.982-0.931l18.572-0.05v8.153
		h-12.33c-0.707-0.033-1.118,0.093-1.234,0.378c-0.117,0.285,0.093,0.915,0.63,1.887c0.535,0.974,1.416,2.391,2.643,4.253
		c1.224,1.862,2.844,4.337,4.856,7.423c0.67,0.873,1.146,1.963,1.435,3.271c0.284,1.309,0.217,2.575-0.204,3.8
		c-0.418,1.225-1.281,2.273-2.59,3.146c-1.309,0.873-3.221,1.31-5.737,1.31H337.136z"/>
</g>
<g>
	<path fill="#F4E90B" d="M141.899,51.645v15.016l-0.142,34.423c0,0.096-0.047,0.142-0.141,0.142h-4.462
		c-0.142,0-0.213-0.069-0.213-0.211l0.142-26.633c-1.18-0.992-2.526-1.747-4.037-2.267c-1.323-0.471-2.894-0.779-4.71-0.92
		c-1.818-0.142-3.885,0.118-6.198,0.779c-1.748,0.52-3.282,1.275-4.604,2.267c-1.181,0.85-2.243,2.03-3.187,3.541
		c-0.946,1.512-1.417,3.425-1.417,5.738l0.283,2.691c0,0.048,0.059,0.332,0.178,0.85c0.117,0.521,0.342,1.146,0.672,1.877
		c0.331,0.733,0.803,1.523,1.417,2.373c0.613,0.85,1.392,1.629,2.337,2.337c0.944,0.708,2.101,1.275,3.47,1.7
		c1.37,0.426,2.975,0.566,4.816,0.426c0.85,0.047,1.676,0.023,2.479-0.071c0.661-0.047,1.311-0.143,1.948-0.284
		c0.638-0.141,1.098-0.354,1.381-0.637c0.046-0.426,0.071-0.755,0.071-0.992c0-0.236,0-0.59,0-1.062V86.21
		c0-0.094,0.071-0.141,0.212-0.141h2.975c0.094,0,0.141,0.047,0.141,0.141l-0.07,13.458c-3.59,0.991-7.013,1.488-10.271,1.488
		c-1.37,0-2.774-0.118-4.214-0.354c-1.441-0.235-2.833-0.638-4.179-1.203c-1.346-0.568-2.598-1.358-3.754-2.374
		c-1.158-1.015-2.137-2.302-2.938-3.859c-0.804-1.605-1.37-3.354-1.7-5.242c-0.283-1.652-0.39-3.553-0.319-5.702
		c0.07-2.149,0.649-4.451,1.735-6.906c0.945-1.7,2.196-3.258,3.754-4.674c1.321-1.181,3.021-2.278,5.1-3.294
		c2.078-1.015,4.627-1.57,7.649-1.665c1.37-0.046,2.692,0,3.966,0.141c1.086,0.095,2.243,0.284,3.472,0.567
		c1.227,0.283,2.29,0.756,3.187,1.417c0.142,0.141,0.212,0.119,0.212-0.071v-1.488v-0.425v-0.141V51.645H141.899z"/>
	<path fill="#F4E90B" d="M156.561,89.61h3.542v5.454v6.092c-2.975-0.426-5.596-1.252-7.862-2.479
		c-0.992-0.52-1.96-1.169-2.904-1.948c-0.946-0.779-1.783-1.7-2.515-2.762c-0.732-1.062-1.322-2.302-1.771-3.719
		s-0.673-3.046-0.673-4.888V65.811l5.596,0.071l0.142,19.195c0.047,1.558,0.33,2.975,0.85,4.25c0.378,1.087,1.003,2.16,1.877,3.223
		c0.874,1.062,2.089,1.806,3.648,2.231L156.561,89.61z M177.739,65.811V85.36c0,1.842-0.224,3.471-0.673,4.888
		c-0.45,1.417-1.051,2.656-1.806,3.719c-0.756,1.062-1.594,1.982-2.515,2.762s-1.878,1.429-2.869,1.948
		c-2.314,1.228-4.935,2.054-7.863,2.479v-6.092c2.55-0.188,4.498-0.815,5.844-1.877c1.346-1.062,2.348-2.207,3.01-3.436
		c0.756-1.417,1.157-2.975,1.204-4.675l0.071-19.195L177.739,65.811z"/>
	<path fill="#F4E90B" d="M217.121,75.515c1.039,2.456,1.604,4.757,1.7,6.906c0.094,2.149,0,4.049-0.283,5.702
		c-0.332,1.889-0.898,3.66-1.7,5.312c-0.804,1.559-1.783,2.834-2.94,3.825c-1.158,0.991-2.408,1.783-3.754,2.373
		c-1.345,0.592-2.738,1.003-4.178,1.239c-1.441,0.237-2.845,0.354-4.215,0.354c-3.258,0.048-6.683-0.448-10.27-1.485l-0.071-13.459
		c0-0.094,0.046-0.142,0.139-0.142h2.911c0.139,0,0.208,0.048,0.208,0.142v6.445c0,0.473,0,0.826,0,1.062
		c0,0.237,0.023,0.592,0.071,1.062c0.283,0.283,0.744,0.484,1.38,0.602c0.638,0.119,1.286,0.226,1.949,0.32
		c0.754,0.094,1.581,0.118,2.479,0.069c1.842,0.096,3.447-0.069,4.816-0.495c1.37-0.425,2.525-0.979,3.471-1.664
		c0.944-0.685,1.723-1.464,2.337-2.338c0.614-0.873,1.086-1.675,1.417-2.408c0.331-0.731,0.555-1.356,0.673-1.877
		c0.118-0.519,0.177-0.802,0.177-0.85l0.354-2.62c0-2.313-0.484-4.215-1.452-5.702c-0.968-1.487-2.043-2.679-3.223-3.577
		c-1.37-1.039-2.904-1.817-4.604-2.337c-2.313-0.661-4.392-0.909-6.233-0.743c-1.841,0.166-3.396,0.484-4.661,0.956
		c-1.535,0.567-2.862,1.322-3.981,2.267l0.142,26.631c0,0.096-0.047,0.142-0.142,0.142l-4.533,0.073
		c-0.095,0-0.142-0.073-0.142-0.215l-0.142-35.202V51.645h4.958v14.237v0.141v0.355v1.558c0,0.189,0.082,0.236,0.246,0.141
		c0.922-0.661,1.986-1.144,3.19-1.452c1.204-0.307,2.348-0.507,3.435-0.603c1.275-0.141,2.597-0.188,3.966-0.141
		c3.021,0.095,5.572,0.65,7.65,1.665c2.078,1.016,3.777,2.113,5.099,3.294C214.925,72.257,216.176,73.815,217.121,75.515z"/>
</g>
</svg>
